<svg xmlns="http://www.w3.org/2000/svg" width="799.776" height="519.623" viewBox="0 0 799.776 519.623" xmlns:xlink="http://www.w3.org/1999/xlink" role="img" artist="Katerina Limpitsouni" source="https://undraw.co/"><g transform="translate(-560 -280)"><g transform="translate(560 280)"><path d="M1043.964,456.133a21.054,21.054,0,0,0-14.954-6.193V437.624a21.448,21.448,0,0,0-21.462-21.462v-9.282h5.108a8.239,8.239,0,0,0,0-16.478h-5.108v-6.44h-2.527v6.44h-6.1a8.239,8.239,0,1,0,0,16.478h6.1v9.282H989.286a11.4,11.4,0,0,0-11.4,11.4v22.38H974.25A42.757,42.757,0,0,0,931.491,492.7v29.909a45.371,45.371,0,0,0-31.644,33.378H881.1V537.052H869.741v-7.964h6.975a8.239,8.239,0,1,0,0-16.478h-6.975v-5.228h-2.525v5.228h-4.231a8.239,8.239,0,0,0,0,16.478h4.231v8a11.391,11.391,0,0,0-10.732,11.366v7.606a42.764,42.764,0,0,0-40.4,42.7V773.78h234.075V471.087a21.053,21.053,0,0,0-6.193-14.953Z" transform="translate(-310.134 -271.363)" fill="#f2f2f2"/><path d="M866.094,449.934v-12.31a21.463,21.463,0,0,0-21.463-21.463h0v-12.03h5a8.239,8.239,0,1,0,0-16.478h-5v-3.687h-2.525v3.687H835.9a8.239,8.239,0,0,0,0,16.478h6.209v12.03H826.36a11.4,11.4,0,0,0-11.4,11.4v22.373h-3.634A42.765,42.765,0,0,0,768.561,492.7v27.709a45.35,45.35,0,0,0-27,35.58H718.181V537.05H706.818V526.34h4.123a8.239,8.239,0,1,0,0-16.478h-4.123V507.38h-2.525v2.482h-7.084a8.239,8.239,0,0,0,0,16.478h7.084v10.744a11.391,11.391,0,0,0-10.732,11.367v7.606a42.765,42.765,0,0,0-40.4,42.7V773.779H887.241v-302.7A21.148,21.148,0,0,0,866.094,449.934Z" transform="translate(-370.926 -271.361)" fill="#f2f2f2"/><path d="M969.711,668.978a2.088,2.088,0,0,1-.323,1.157.965.965,0,0,1-.783.477l-551.1.288-1.934.014-113.737.055h-1.878l-96.814.055h-1.878l-30.22.014c-.611,0-1.107-.732-1.107-1.634s.5-1.634,1.107-1.634l30.536-.014h1.878l96.786-.055h1.878l112.854-.055H416.9l96.163-.055h1.265l454.279-.247a.965.965,0,0,1,.784.477A2.089,2.089,0,0,1,969.711,668.978Z" transform="translate(-169.935 -165.622)" fill="#f2f2f2"/><rect width="15.782" height="12.625" transform="translate(355.461 360.381) rotate(180)" fill="#fff"/><rect width="15.782" height="12.625" transform="translate(329.579 360.381) rotate(180)" fill="#fff"/><rect width="15.782" height="12.625" transform="translate(355.461 392.576) rotate(180)" fill="#fff"/><rect width="15.782" height="12.625" transform="translate(329.579 392.576) rotate(180)" fill="#fff"/><rect width="15.782" height="12.625" transform="translate(355.461 424.771) rotate(180)" fill="#fff"/><rect width="15.782" height="12.625" transform="translate(329.579 424.771) rotate(180)" fill="#fff"/><rect width="15.782" height="12.625" transform="translate(329.579 456.966) rotate(180)" fill="#fff"/><rect width="15.782" height="12.625" transform="translate(329.579 489.161) rotate(180)" fill="#fff"/><rect width="51.133" height="3.788" transform="translate(482.542 324.714) rotate(180)" fill="#fff"/><rect width="51.133" height="3.788" transform="translate(482.542 348.071) rotate(180)" fill="#fff"/><rect width="51.133" height="3.788" transform="translate(482.542 371.429) rotate(180)" fill="#fff"/><rect width="15.782" height="12.625" transform="translate(477.49 164.37) rotate(180)" fill="#fff"/><rect width="15.782" height="12.625" transform="translate(579.176 392.576) rotate(180)" fill="#fff"/><rect width="15.782" height="12.625" transform="translate(553.293 392.576) rotate(180)" fill="#fff"/><rect width="15.782" height="12.625" transform="translate(579.176 424.771) rotate(180)" fill="#fff"/><rect width="15.782" height="12.625" transform="translate(553.293 424.771) rotate(180)" fill="#fff"/><rect width="15.782" height="12.625" transform="translate(579.176 456.966) rotate(180)" fill="#fff"/><rect width="15.782" height="12.625" transform="translate(553.293 456.966) rotate(180)" fill="#fff"/><rect width="15.782" height="12.625" transform="translate(579.176 489.161) rotate(180)" fill="#fff"/><rect width="15.782" height="12.625" transform="translate(553.293 489.161) rotate(180)" fill="#fff"/><rect width="15.782" height="12.625" transform="translate(701.206 164.37) rotate(180)" fill="#fff"/><circle cx="36.664" cy="36.664" r="36.664" transform="translate(386.799 0)" fill="#001552"/><path d="M840.271,247.9a18.191,18.191,0,0,0-15.351-12.758c-.08-.011-.155,0-.235,0a2.293,2.293,0,0,0-.313-.072c-16.767-2.167-36.122,5.852-43.11,21.748a17.761,17.761,0,0,0-14.876-7.249,18.116,18.116,0,0,0-16.2,13.06,2.125,2.125,0,0,0,.947,2.326,9.291,9.291,0,0,0,3.831,1.944q4.567.968,9.167,1.773,8.976,1.571,18.046,2.54a268.338,268.338,0,0,0,36.962,1.4c4.109-.128,8.072-.264,11.837-2.078a17.614,17.614,0,0,0,6.791-5.926,19.982,19.982,0,0,0,2.506-16.7Z" transform="translate(-334.746 -228.592)" fill="#f2f2f2"/><path d="M784.776,283.5a18.191,18.191,0,0,0-15.351-12.757c-.08-.011-.155,0-.235,0a2.277,2.277,0,0,0-.313-.072c-16.767-2.167-36.122,5.852-43.11,21.748a17.76,17.76,0,0,0-14.876-7.249,18.116,18.116,0,0,0-16.2,13.06,2.126,2.126,0,0,0,.947,2.326,9.291,9.291,0,0,0,3.83,1.944q4.568.967,9.167,1.773,8.976,1.571,18.046,2.54a268.342,268.342,0,0,0,36.962,1.4c4.109-.128,8.072-.264,11.837-2.078a17.615,17.615,0,0,0,6.791-5.926,19.982,19.982,0,0,0,2.506-16.7Z" transform="translate(-355.454 -215.308)" fill="#f2f2f2"/><rect width="38.874" height="8.239" transform="translate(701.15 205.546)" fill="#fff"/><rect width="38.874" height="8.239" transform="translate(701.15 230.263)" fill="#fff"/><rect width="38.874" height="8.239" transform="translate(701.15 254.979)" fill="#fff"/><rect width="38.874" height="8.239" transform="translate(701.15 279.696)" fill="#fff"/><rect width="38.874" height="8.239" transform="translate(701.15 304.412)" fill="#fff"/><rect width="38.874" height="8.239" transform="translate(701.15 329.129)" fill="#fff"/></g><path d="M923.687,166.237c-2.115-2.991-4.716-5.6-6.948-8.509-5.145-6.7-6.925-15.619-13.83-20.754-6.832-5.081-17.675-10.082-26.224-9.682-11.268.528-20.207,9.27-27.974,17.449L830.9,163.494c-4.294,4.522-8.747,9.323-10.295,15.364-1.488,5.806-.036,12.043,2.688,17.383a42.3,42.3,0,0,0,11.635,13.89c5.961-8.208,14.312-19.542,14.312-19.542l1.944,28.191c10.1,3.347,20.948,4.005,31.59,3.265l3.152-11.559,3.308,10.919c12.718-1.686,25.5-6.077,33.368-16C931.311,194.43,931.773,177.673,923.687,166.237Z" transform="translate(-157.758 188.07)" fill="#2f2e41"/><path d="M863.668,196.37s1.507,18.083-8.288,19.589-20.343,0-20.343,6.027,7.534,61.028,7.534,61.028l18.836-1.507,26.37-25.617,14.315-27.877s-17.329-7.534-9.795-30.138Z" transform="translate(-161.463 171.032)" fill="#ed9da0"/><circle cx="23.357" cy="23.357" r="23.357" transform="translate(693.918 332.744)" fill="#ed9da0"/><path d="M756.414,417.528s-23.592,27.513-18.634,29.31,28.109-17.863,26.621-24.813Z" transform="translate(-137.313 116.503)" fill="#ed9da0"/><path d="M943.883,451.37s12.809,33.9,7.534,33.9-20.343-26.37-16.576-32.4Z" transform="translate(-185.924 108.159)" fill="#ed9da0"/><ellipse cx="27.877" cy="9.041" rx="27.877" ry="9.041" transform="matrix(0.579, -0.816, 0.816, 0.579, 751.411, 778.579)" fill="#d6d6e3"/><ellipse cx="27.877" cy="9.041" rx="27.877" ry="9.041" transform="translate(654.422 785.877) rotate(-40.523)" fill="#d6d6e3"/><path d="M846.64,276.412l-7.534-20.343,1.507-27.877s16.543-2.26,16.183-15.822l-12.415,5.274-28.631,4.521v26.37s-9.795,15.822,1.507,31.644l5.274,33.151,54.247-3.767,17.329-22.6,21.85-42.946-22.6-16.576L884.838,215.4l1.734,14.3L881.3,238.74S857.188,243.261,846.64,276.412Z" transform="translate(-155.735 167.087)" fill="#d6d6e3"/><path d="M806.765,226.877l-4.521-1.507s-9.041,3.767-9.041,15.822-36.165,131.1-36.165,131.1l16.576,4.521,22.6-55,13.562-45.96Z" transform="translate(-142.23 163.882)" fill="#d6d6e3"/><path d="M936.86,254.324h6.027s3.767-3.014,3.014,18.836,2.26,137.126,2.26,137.126l-21.85-1.507-5.274-124.317Z" transform="translate(-182.667 156.778)" fill="#d6d6e3"/><path d="M882.865,332.431s-51.068-9.389-62.369-.347A6.6,6.6,0,0,1,822,336.6c0,3.014,1.507-.753,0,3.014s-4.521.753-1.507,3.767,3.767,2.26,2.26,4.521,0,6.027,0,6.027-8.288,39.179-.753,67.056,70.07,224.524,86.645,219.25,58.015-29.384,55.754-37.672-78.358-122.81-78.358-122.81,31.644-98.7-6.028-130.345c0,0,2.26-3.014,1.507-5.274s-1.507,0-.753-2.26,4.521-2.26,2.26-4.521S882.865,332.431,882.865,332.431Z" transform="translate(-157.469 138.54)" fill="#090814"/><path d="M844.255,441.37S793.021,670.415,803.57,674.182s51.234,4.521,54.247,0,24.11-166.51,24.11-166.51Z" transform="translate(-153.351 110.625)" fill="#090814"/><path d="M859.538,153.445s18.836,22.6,56.508,9.795L905.5,144.4l-24.863-7.534Z" transform="translate(-167.504 185.703)" fill="#2f2e41"/><path d="M34.51,31.145S28.088,7.174.558,1.641C.527,1.63.424,1.589.29,1.527.207,1.475.1,1.424,0,1.372.31,1.2.61,1.041.92.886a.01.01,0,0,0,.007,0,.01.01,0,0,0,0-.007c.269-.248.538-.5.817-.734l.786.031S30.156-4.2,34.51,31.145Z" transform="matrix(0.883, -0.469, 0.469, 0.883, 697.172, 336.424)" fill="#001552"/></g></svg>