<svg xmlns="http://www.w3.org/2000/svg" version="1.1" xmlns:xlink="http://www.w3.org/1999/xlink" xmlns:svgjs="http://svgjs.com/svgjs" width="1440" height="560" preserveAspectRatio="none" viewBox="0 0 1440 560"><g mask="url(&quot;#SvgjsMask1002&quot;)" fill="none"><rect width="1440" height="560" x="0" y="0" fill="#1e3266"></rect><path d="M1488 560L0 560 L0 369.21Q29.86 327.06, 72 356.92Q71.22 284.14, 144 283.37Q198.5 265.87, 216 320.36Q277.5 309.87, 288 371.37Q309.18 320.55, 360 341.73Q396.8 258.53, 480 295.34Q526.96 270.3, 552 317.26Q636.05 281.31, 672 365.35Q737.39 310.75, 792 376.14Q838.58 302.72, 912 349.29Q921.81 287.1, 984 296.91Q1056.96 249.88, 1104 322.84Q1186.75 285.59, 1224 368.34Q1228.53 300.87, 1296 305.4Q1350.59 239.99, 1416 294.57Q1463.12 269.69, 1488 316.81z" fill="#182f5d"></path><path d="M1560 560L0 560 L0 402.61Q55.74 338.36, 120 394.1Q174.69 328.8, 240 383.49Q264.59 336.08, 312 360.66Q405.41 334.07, 432 427.48Q500.71 376.19, 552 444.9Q570.6 343.5, 672 362.09Q746.56 316.65, 792 391.21Q821.02 348.23, 864 377.25Q914.46 355.71, 936 406.16Q987.09 337.25, 1056 388.33Q1075.34 335.67, 1128 355.01Q1210.4 317.41, 1248 399.81Q1277.26 357.07, 1320 386.34Q1404.91 351.25, 1440 436.16Q1505.43 381.59, 1560 447.02z" fill="#25467d"></path><path d="M1488 560L0 560 L0 497.36Q29.88 455.24, 72 485.12Q93.38 434.5, 144 455.87Q211.85 403.72, 264 471.57Q312.19 447.76, 336 495.96Q377.32 465.28, 408 506.61Q455.17 433.78, 528 480.95Q582.8 415.75, 648 470.55Q685.48 388.03, 768 425.52Q814.3 399.81, 840 446.11Q886.44 420.56, 912 467Q982.56 417.56, 1032 488.12Q1071.28 407.4, 1152 446.68Q1198.28 420.96, 1224 467.24Q1274.59 445.83, 1296 496.41Q1341.94 470.36, 1368 516.3Q1396.18 424.49, 1488 452.67z" fill="#356cb1"></path><path d="M1512 560L0 560 L0 580.16Q33.21 493.37, 120 526.57Q191.28 477.86, 240 549.14Q306 495.13, 360 561.13Q403.19 484.32, 480 527.51Q527.32 502.83, 552 550.14Q630.56 508.7, 672 587.27Q675.21 518.48, 744 521.69Q793.12 450.81, 864 499.92Q928.84 492.76, 936 557.61Q986.26 535.88, 1008 586.14Q1030.79 488.93, 1128 511.73Q1201.72 465.45, 1248 539.18Q1284.77 455.95, 1368 492.72Q1419.25 471.97, 1440 523.22Q1489.88 501.1, 1512 550.97z" fill="rgba(219, 225, 255, 1)"></path></g><defs><mask id="SvgjsMask1002"><rect width="1440" height="560" fill="#ffffff"></rect></mask></defs></svg>