<svg xmlns="http://www.w3.org/2000/svg">
	<symbol id="white-balance-sunny" viewBox="0 0 24 24">
    <path d="M3.55,18.54L4.96,19.95L6.76,18.16L5.34,16.74M11,22.45C11.32,22.45 13,22.45 13,22.45V19.5H11M12,5.5A6,6 0 0,0 6,11.5A6,6 0 0,0 12,17.5A6,6 0 0,0 18,11.5C18,8.18 15.31,5.5 12,5.5M20,12.5H23V10.5H20M17.24,18.16L19.04,19.95L20.45,18.54L18.66,16.74M20.45,4.46L19.04,3.05L17.24,4.84L18.66,6.26M13,0.55H11V3.5H13M4,10.5H1V12.5H4M6.76,4.84L4.96,3.05L3.55,4.46L5.34,6.26L6.76,4.84Z" />
	</symbol>
	<symbol id="html5-tech" viewBox="0 0 128 128">
		<path fill="#E44D26" d="M19.037 113.876L9.032 1.661h109.936l-10.016 112.198-45.019 12.48z"></path><path fill="#F16529" d="M64 116.8l36.378-10.086 8.559-95.878H64z"></path><path fill="#EBEBEB" d="M64 52.455H45.788L44.53 38.361H64V24.599H29.489l.33 3.692 3.382 37.927H64zm0 35.743l-.061.017-15.327-4.14-.979-10.975H33.816l1.928 21.609 28.193 7.826.063-.017z"></path><path fill="#fff" d="M63.952 52.455v13.763h16.947l-1.597 17.849-15.35 4.143v14.319l28.215-7.82.207-2.325 3.234-36.233.335-3.696h-3.708zm0-27.856v13.762h33.244l.276-3.092.628-6.978.329-3.692z"></path>
	</symbol> 
	<symbol id="css3-tech" viewBox="0 0 128 128">
		<path fill="#1572B6" d="M18.814 114.123L8.76 1.352h110.48l-10.064 112.754-45.243 12.543-45.119-12.526z"></path><path fill="#33A9DC" d="M64.001 117.062l36.559-10.136 8.601-96.354h-45.16v106.49z"></path><path fill="#fff" d="M64.001 51.429h18.302l1.264-14.163H64.001V23.435h34.682l-.332 3.711-3.4 38.114h-30.95V51.429z"></path><path fill="#EBEBEB" d="M64.083 87.349l-.061.018-15.403-4.159-.985-11.031H33.752l1.937 21.717 28.331 7.863.063-.018v-14.39z"></path><path fill="#fff" d="M81.127 64.675l-1.666 18.522-15.426 4.164v14.39l28.354-7.858.208-2.337 2.406-26.881H81.127z"></path><path fill="#EBEBEB" d="M64.048 23.435v13.831H30.64l-.277-3.108-.63-7.012-.331-3.711h34.646zm-.047 27.996v13.831H48.792l-.277-3.108-.631-7.012-.33-3.711h16.447z"></path>
	</symbol> 
	<symbol id="javascript-tech" viewBox="0 0 128 128">
		<path fill="#F0DB4F" d="M1.408 1.408h125.184v125.185H1.408z"></path><path fill="#323330" d="M116.347 96.736c-.917-5.711-4.641-10.508-15.672-14.981-3.832-1.761-8.104-3.022-9.377-5.926-.452-1.69-.512-2.642-.226-3.665.821-3.32 4.784-4.355 7.925-3.403 2.023.678 3.938 2.237 5.093 4.724 5.402-3.498 5.391-3.475 9.163-5.879-1.381-2.141-2.118-3.129-3.022-4.045-3.249-3.629-7.676-5.498-14.756-5.355l-3.688.477c-3.534.893-6.902 2.748-8.877 5.235-5.926 6.724-4.236 18.492 2.975 23.335 7.104 5.332 17.54 6.545 18.873 11.531 1.297 6.104-4.486 8.08-10.234 7.378-4.236-.881-6.592-3.034-9.139-6.949-4.688 2.713-4.688 2.713-9.508 5.485 1.143 2.499 2.344 3.63 4.26 5.795 9.068 9.198 31.76 8.746 35.83-5.176.165-.478 1.261-3.666.38-8.581zM69.462 58.943H57.753l-.048 30.272c0 6.438.333 12.34-.714 14.149-1.713 3.558-6.152 3.117-8.175 2.427-2.059-1.012-3.106-2.451-4.319-4.485-.333-.584-.583-1.036-.667-1.071l-9.52 5.83c1.583 3.249 3.915 6.069 6.902 7.901 4.462 2.678 10.459 3.499 16.731 2.059 4.082-1.189 7.604-3.652 9.448-7.401 2.666-4.915 2.094-10.864 2.07-17.444.06-10.735.001-21.468.001-32.237z"></path>
	</symbol>
	<symbol id="vuejs-tech" viewBox="0 0 128 128">
		<path d="M0 8.934l49.854.158 14.167 24.47 14.432-24.47L128 8.935l-63.834 110.14zm126.98.637l-24.36.02-38.476 66.053L25.691 9.592.942 9.572l63.211 107.89zm-25.149-.008l-22.745.168-15.053 24.647L49.216 9.73l-22.794-.168 37.731 64.476zm-75.834-.17l23.002.009m-23.002-.01l23.002.01" fill="none"></path><path d="M25.997 9.393l23.002.009L64.035 34.36 79.018 9.404 102 9.398 64.15 75.053z" fill="#35495e"></path><path d="M.91 9.569l25.067-.172 38.15 65.659L101.98 9.401l25.11.026-62.966 108.06z" fill="#41b883"></path>
	</symbol> 
	<symbol id="stylus-tech" viewBox="0 0 128 128">
		<g fill="#333"><path d="M20.62 85.39c3.25-3.89 3.64-7.91 1.12-15.37-1.59-4.72-4.24-8.36-2.3-11.29 2.07-3.13 6.47-.1 2.81 4.08l.73.51c4.4.51 6.57-5.52 3.28-7.24-8.67-4.53-16.26 4.18-12.91 14.26 1.44 4.27 3.44 8.8 1.82 12.41-1.4 3.09-4.11 4.91-5.93 5C5.44 87.91 8 79.2 12.33 77c.38-.19.92-.45.41-1.08-5.39-.61-8.55 1.88-10.36 5.36-5.29 10.14 10.05 13.87 18.24 4.11zM115.34 55.67c1.24 3.06 3.13 6.09 2 8.77-.92 2.3-2.14 3.25-3.48 3.48-1.88.32-1.37-5.58 1.85-7.33.29-.16.7-.92.32-1.37-4.08-.22-6.38 1.72-7.62 4.31-3.6 7.56 8.16 9.63 13.94 2.2 2.3-3 2.39-5.9.19-11.23-1.4-3.38-3.54-5.9-2.2-8.13s4.88-.32 2.3 2.84l.57.32c3.35.19 4.72-4.27 2.17-5.39-6.73-2.89-13.01 4.35-10.04 11.53z"></path><path d="M72.73 47.6c-2.33-1.85-8.86 1.24-10.73 5.84-2.33 5.84-5.77 14.35-9.15 18.08-3.57 3.92-3.92.89-3.57-1.37.83-5.33 6-17.67 8.87-21.14-1.05-1.56-7.94-1.34-12.72 6.09-1.78 2.8-5.86 12.14-10.43 19.51-1 1.59-2.23.48-1.28-3.25 1.08-4.31 4.27-16.14 8.39-25.45 10.78-2.14 22.23-3.64 31-3.67 1.18-.32 2-1.37 0-1.44-7.56-.26-18.91.64-29.53 2 2-4.08 4.24-7.33 6.47-8.71-2.42-1.53-7.33-.92-10.14 3.22a55 55 0 00-3.67 6.51c-7.74 1.18-14.4 2.57-17.78 3.84s-3.13 5.58-1 4.78a141.67 141.67 0 0117.09-4.91C30.32 57.1 27 68.39 26.2 73c-2 11.16 4.94 11.1 8.32 6.7C38.2 74.87 45.85 57.93 47 56.15c.35-.61.83-.29.57.26-8.55 17.06-7.81 23.66-.89 22.2 3.13-.67 8.51-6 9.92-8.8.29-.67.89-.61.77-.32C52 83.54 45.08 94.92 40.46 98.5c-4.21 3.22-7.33-3.76 7.56-13.78 2.2-1.5 1.18-3.54-1.31-2.84C39 83.09 17 90.08 7.36 96.77c-.73.51-1.4.92-1.37 2 0 .61 1.08.38 1.59.06 12.5-7.49 22.74-10.43 34.47-12.88a.71.71 0 00.51 0c.54-.13.51.16.16.38-.8.45-1.59.86-1.79.92-7.91 3.09-12.69 9.92-11 13.39 1.44 3 9.18 1.91 12.85-.06 9-4.88 15.53-14.45 20-27.65 3.89-11.68 8.8-24.93 9.95-25.33zM125 74.61c-14.64-1.91-46.21.64-60.15 4.34-4.15 1.08-3 3.28-.89 2.87l1-.22c11.45-2.23 39.23-4.18 55.43-1.08 1.9.34 7.74-5.52 4.61-5.91zM76.81 72.89C80.9 70.85 87 58.22 90.94 51.3c.29-.51.8-.1.51.26-10.08 17.35-5.8 19.36-1.82 19.1C95 70.34 99.87 62.68 101 61c.45-.67.7-.13.45.35-.26.8-1.18 2.2-2 4.11-1.21 2.71.06 3.76 1.12 4.24 1.66.8 6.19.29 6.89-2.49-4.53-.1 6.31-21.46 7.43-22.77-3-1.75-7.72.16-9.85 4.37-4.56 9-8.39 16.3-10.78 16.42-4.66.26 5.36-20.12 7-20.76-1-1.44-7.33-.83-10.87 4.66-1.28 2-9.06 15.75-11 18-3.38 4-3.64.57-2.68-3.44a47.34 47.34 0 011.56-5.07c2.23-5 4.62-6.63 6.09-8.26 9.85-10.94 15.5-19.8 13.27-23.28-2-3.09-8.58-1.72-12.82 4.66-7.81 11.7-15 27.74-15.95 35.08s4.35 7.85 7.95 6.07zM81 51.43c.35-.8.57-1 1.18-2.36 3.47-7.72 7.82-15.85 10.9-19.65 1.88-2 4.53.7-.26 8a73.73 73.73 0 01-9.47 11.83c-.89 1-1.69 1.82-2 2.3-.29.39-.58.32-.35-.12z"></path></g>
	</symbol>
	<symbol id="figma-tech" viewBox="0 0 128 128">
		<path fill="#0acf83" d="M45.5 129c11.9 0 21.5-9.6 21.5-21.5V86H45.5C33.6 86 24 95.6 24 107.5S33.6 129 45.5 129zm0 0"></path><path fill="#a259ff" d="M24 64.5C24 52.6 33.6 43 45.5 43H67v43H45.5C33.6 86 24 76.4 24 64.5zm0 0"></path><path fill="#f24e1e" d="M24 21.5C24 9.6 33.6 0 45.5 0H67v43H45.5C33.6 43 24 33.4 24 21.5zm0 0"></path><path fill="#ff7262" d="M67 0h21.5C100.4 0 110 9.6 110 21.5S100.4 43 88.5 43H67zm0 0"></path><path fill="#1abcfe" d="M110 64.5c0 11.9-9.6 21.5-21.5 21.5S67 76.4 67 64.5 76.6 43 88.5 43 110 52.6 110 64.5zm0 0"></path>
	</symbol>
	<symbol id="git-tech" viewBox="0 0 128 128">
		<path fill="#F34F29" d="M124.737 58.378L69.621 3.264c-3.172-3.174-8.32-3.174-11.497 0L46.68 14.71l14.518 14.518c3.375-1.139 7.243-.375 9.932 2.314 2.703 2.706 3.461 6.607 2.294 9.993l13.992 13.993c3.385-1.167 7.292-.413 9.994 2.295 3.78 3.777 3.78 9.9 0 13.679a9.673 9.673 0 01-13.683 0 9.677 9.677 0 01-2.105-10.521L68.574 47.933l-.002 34.341a9.708 9.708 0 012.559 1.828c3.778 3.777 3.778 9.898 0 13.683-3.779 3.777-9.904 3.777-13.679 0-3.778-3.784-3.778-9.905 0-13.683a9.65 9.65 0 013.167-2.11V47.333a9.581 9.581 0 01-3.167-2.111c-2.862-2.86-3.551-7.06-2.083-10.576L41.056 20.333 3.264 58.123a8.133 8.133 0 000 11.5l55.117 55.114c3.174 3.174 8.32 3.174 11.499 0l54.858-54.858a8.135 8.135 0 00-.001-11.501z"></path>
	</symbol> 
	<symbol id="github-tech" viewBox="0 0 128 128">
		<g fill="#181616"><path fill-rule="evenodd" clip-rule="evenodd" d="M64 5.103c-33.347 0-60.388 27.035-60.388 60.388 0 26.682 17.303 49.317 41.297 57.303 3.017.56 4.125-1.31 4.125-2.905 0-1.44-.056-6.197-.082-11.243-16.8 3.653-20.345-7.125-20.345-7.125-2.747-6.98-6.705-8.836-6.705-8.836-5.48-3.748.413-3.67.413-3.67 6.063.425 9.257 6.223 9.257 6.223 5.386 9.23 14.127 6.562 17.573 5.02.542-3.903 2.107-6.568 3.834-8.076-13.413-1.525-27.514-6.704-27.514-29.843 0-6.593 2.36-11.98 6.223-16.21-.628-1.52-2.695-7.662.584-15.98 0 0 5.07-1.623 16.61 6.19C53.7 35 58.867 34.327 64 34.304c5.13.023 10.3.694 15.127 2.033 11.526-7.813 16.59-6.19 16.59-6.19 3.287 8.317 1.22 14.46.593 15.98 3.872 4.23 6.215 9.617 6.215 16.21 0 23.194-14.127 28.3-27.574 29.796 2.167 1.874 4.097 5.55 4.097 11.183 0 8.08-.07 14.583-.07 16.572 0 1.607 1.088 3.49 4.148 2.897 23.98-7.994 41.263-30.622 41.263-57.294C124.388 32.14 97.35 5.104 64 5.104z"></path><path d="M26.484 91.806c-.133.3-.605.39-1.035.185-.44-.196-.685-.605-.543-.906.13-.31.603-.395 1.04-.188.44.197.69.61.537.91zm2.446 2.729c-.287.267-.85.143-1.232-.28-.396-.42-.47-.983-.177-1.254.298-.266.844-.14 1.24.28.394.426.472.984.17 1.255zM31.312 98.012c-.37.258-.976.017-1.35-.52-.37-.538-.37-1.183.01-1.44.373-.258.97-.025 1.35.507.368.545.368 1.19-.01 1.452zm3.261 3.361c-.33.365-1.036.267-1.552-.23-.527-.487-.674-1.18-.343-1.544.336-.366 1.045-.264 1.564.23.527.486.686 1.18.333 1.543zm4.5 1.951c-.147.473-.825.688-1.51.486-.683-.207-1.13-.76-.99-1.238.14-.477.823-.7 1.512-.485.683.206 1.13.756.988 1.237zm4.943.361c.017.498-.563.91-1.28.92-.723.017-1.308-.387-1.315-.877 0-.503.568-.91 1.29-.924.717-.013 1.306.387 1.306.88zm4.598-.782c.086.485-.413.984-1.126 1.117-.7.13-1.35-.172-1.44-.653-.086-.498.422-.997 1.122-1.126.714-.123 1.354.17 1.444.663zm0 0"></path></g>
	</symbol> 
	<symbol id="github" viewBox="0 0 24 24">
	    <path d="M12,2A10,10 0 0,0 2,12C2,16.42 4.87,20.17 8.84,21.5C9.34,21.58 9.5,21.27 9.5,21C9.5,20.77 9.5,20.14 9.5,19.31C6.73,19.91 6.14,17.97 6.14,17.97C5.68,16.81 5.03,16.5 5.03,16.5C4.12,15.88 5.1,15.9 5.1,15.9C6.1,15.97 6.63,16.93 6.63,16.93C7.5,18.45 8.97,18 9.54,17.76C9.63,17.11 9.89,16.67 10.17,16.42C7.95,16.17 5.62,15.31 5.62,11.5C5.62,10.39 6,9.5 6.65,8.79C6.55,8.54 6.2,7.5 6.75,6.15C6.75,6.15 7.59,5.88 9.5,7.17C10.29,6.95 11.15,6.84 12,6.84C12.85,6.84 13.71,6.95 14.5,7.17C16.41,5.88 17.25,6.15 17.25,6.15C17.8,7.5 17.45,8.54 17.35,8.79C18,9.5 18.38,10.39 18.38,11.5C18.38,15.32 16.04,16.16 13.81,16.41C14.17,16.72 14.5,17.33 14.5,18.26C14.5,19.6 14.5,20.68 14.5,21C14.5,21.27 14.66,21.59 15.17,21.5C19.14,20.16 22,16.42 22,12A10,10 0 0,0 12,2Z" />
	</symbol>
	<symbol id="subdirectory-arrow-right" viewBox="0 0 24 24">
		<path d="M19,15L13,21L11.58,19.58L15.17,16H4V4H6V14H15.17L11.58,10.42L13,9L19,15Z" />
	</symbol>
	<symbol id="information-outline" viewBox="0 0 24 24">
		<path d="M11,9H13V7H11M12,20C7.59,20 4,16.41 4,12C4,7.59 7.59,4 12,4C16.41,4 20,7.59 20,12C20,16.41 16.41,20 12,20M12,2A10,10 0 0,0 2,12A10,10 0 0,0 12,22A10,10 0 0,0 22,12A10,10 0 0,0 12,2M11,17H13V11H11V17Z" />
	</symbol>
	<symbol id="pdf" viewBox="0 0 24 24">
    <path d="M8,13H10.55V10H13.45V13H16L12,17L8,13M19.35,10.04C21.95,10.22 24,12.36 24,15A5,5 0 0,1 19,20H6A6,6 0 0,1 0,14C0,10.91 2.34,8.36 5.35,8.04C6.6,5.64 9.11,4 12,4C15.64,4 18.67,6.59 19.35,10.04M19,18A3,3 0 0,0 22,15C22,13.45 20.78,12.14 19.22,12.04L17.69,11.93L17.39,10.43C16.88,7.86 14.62,6 12,6C9.94,6 8.08,7.14 7.13,8.97L6.63,9.92L5.56,10.03C3.53,10.24 2,11.95 2,14A4,4 0 0,0 6,18H19Z" />
	</symbol>
	<symbol id="linkedin" viewBox="0 0 24 24">
    <path d="M19 3A2 2 0 0 1 21 5V19A2 2 0 0 1 19 21H5A2 2 0 0 1 3 19V5A2 2 0 0 1 5 3H19M18.5 18.5V13.2A3.26 3.26 0 0 0 15.24 9.94C14.39 9.94 13.4 10.46 12.92 11.24V10.13H10.13V18.5H12.92V13.57C12.92 12.8 13.54 12.17 14.31 12.17A1.4 1.4 0 0 1 15.71 13.57V18.5H18.5M6.88 8.56A1.68 1.68 0 0 0 8.56 6.88C8.56 5.95 7.81 5.19 6.88 5.19A1.69 1.69 0 0 0 5.19 6.88C5.19 7.81 5.95 8.56 6.88 8.56M8.27 18.5V10.13H5.5V18.5H8.27Z" />
	</symbol>
	<symbol id="menu" viewBox="0 0 24 24">
		<path d="M3,6H21V8H3V6M3,11H21V13H3V11M3,16H21V18H3V16Z" />
	</symbol>

</svg>