<svg xmlns="http://www.w3.org/2000/svg">
	<symbol id="white-balance-sunny" viewBox="0 0 24 24">
    <path d="M3.55,18.54L4.96,19.95L6.76,18.16L5.34,16.74M11,22.45C11.32,22.45 13,22.45 13,22.45V19.5H11M12,5.5A6,6 0 0,0 6,11.5A6,6 0 0,0 12,17.5A6,6 0 0,0 18,11.5C18,8.18 15.31,5.5 12,5.5M20,12.5H23V10.5H20M17.24,18.16L19.04,19.95L20.45,18.54L18.66,16.74M20.45,4.46L19.04,3.05L17.24,4.84L18.66,6.26M13,0.55H11V3.5H13M4,10.5H1V12.5H4M6.76,4.84L4.96,3.05L3.55,4.46L5.34,6.26L6.76,4.84Z" />
	</symbol>
	<symbol id="html5-tech" viewBox="0 0 128 128">
		<path fill="#E44D26" d="M19.037 113.876L9.032 1.661h109.936l-10.016 112.198-45.019 12.48z"></path><path fill="#F16529" d="M64 116.8l36.378-10.086 8.559-95.878H64z"></path><path fill="#EBEBEB" d="M64 52.455H45.788L44.53 38.361H64V24.599H29.489l.33 3.692 3.382 37.927H64zm0 35.743l-.061.017-15.327-4.14-.979-10.975H33.816l1.928 21.609 28.193 7.826.063-.017z"></path><path fill="#fff" d="M63.952 52.455v13.763h16.947l-1.597 17.849-15.35 4.143v14.319l28.215-7.82.207-2.325 3.234-36.233.335-3.696h-3.708zm0-27.856v13.762h33.244l.276-3.092.628-6.978.329-3.692z"></path>
	</symbol> 
	<symbol id="css3-tech" viewBox="0 0 128 128">
		<path fill="#1572B6" d="M18.814 114.123L8.76 1.352h110.48l-10.064 112.754-45.243 12.543-45.119-12.526z"></path><path fill="#33A9DC" d="M64.001 117.062l36.559-10.136 8.601-96.354h-45.16v106.49z"></path><path fill="#fff" d="M64.001 51.429h18.302l1.264-14.163H64.001V23.435h34.682l-.332 3.711-3.4 38.114h-30.95V51.429z"></path><path fill="#EBEBEB" d="M64.083 87.349l-.061.018-15.403-4.159-.985-11.031H33.752l1.937 21.717 28.331 7.863.063-.018v-14.39z"></path><path fill="#fff" d="M81.127 64.675l-1.666 18.522-15.426 4.164v14.39l28.354-7.858.208-2.337 2.406-26.881H81.127z"></path><path fill="#EBEBEB" d="M64.048 23.435v13.831H30.64l-.277-3.108-.63-7.012-.331-3.711h34.646zm-.047 27.996v13.831H48.792l-.277-3.108-.631-7.012-.33-3.711h16.447z"></path>
	</symbol> 
	<symbol id="javascript-tech" viewBox="0 0 128 128">
		<path fill="#F0DB4F" d="M1.408 1.408h125.184v125.185H1.408z"></path><path fill="#323330" d="M116.347 96.736c-.917-5.711-4.641-10.508-15.672-14.981-3.832-1.761-8.104-3.022-9.377-5.926-.452-1.69-.512-2.642-.226-3.665.821-3.32 4.784-4.355 7.925-3.403 2.023.678 3.938 2.237 5.093 4.724 5.402-3.498 5.391-3.475 9.163-5.879-1.381-2.141-2.118-3.129-3.022-4.045-3.249-3.629-7.676-5.498-14.756-5.355l-3.688.477c-3.534.893-6.902 2.748-8.877 5.235-5.926 6.724-4.236 18.492 2.975 23.335 7.104 5.332 17.54 6.545 18.873 11.531 1.297 6.104-4.486 8.08-10.234 7.378-4.236-.881-6.592-3.034-9.139-6.949-4.688 2.713-4.688 2.713-9.508 5.485 1.143 2.499 2.344 3.63 4.26 5.795 9.068 9.198 31.76 8.746 35.83-5.176.165-.478 1.261-3.666.38-8.581zM69.462 58.943H57.753l-.048 30.272c0 6.438.333 12.34-.714 14.149-1.713 3.558-6.152 3.117-8.175 2.427-2.059-1.012-3.106-2.451-4.319-4.485-.333-.584-.583-1.036-.667-1.071l-9.52 5.83c1.583 3.249 3.915 6.069 6.902 7.901 4.462 2.678 10.459 3.499 16.731 2.059 4.082-1.189 7.604-3.652 9.448-7.401 2.666-4.915 2.094-10.864 2.07-17.444.06-10.735.001-21.468.001-32.237z"></path>
	</symbol>
	<symbol id="vuejs-tech" viewBox="0 0 128 128">
		<path d="M0 8.934l49.854.158 14.167 24.47 14.432-24.47L128 8.935l-63.834 110.14zm126.98.637l-24.36.02-38.476 66.053L25.691 9.592.942 9.572l63.211 107.89zm-25.149-.008l-22.745.168-15.053 24.647L49.216 9.73l-22.794-.168 37.731 64.476zm-75.834-.17l23.002.009m-23.002-.01l23.002.01" fill="none"></path><path d="M25.997 9.393l23.002.009L64.035 34.36 79.018 9.404 102 9.398 64.15 75.053z" fill="#35495e"></path><path d="M.91 9.569l25.067-.172 38.15 65.659L101.98 9.401l25.11.026-62.966 108.06z" fill="#41b883"></path>
	</symbol> 
	<symbol id="stylus-tech" viewBox="0 0 128 128">
		<g fill="#333"><path d="M20.62 85.39c3.25-3.89 3.64-7.91 1.12-15.37-1.59-4.72-4.24-8.36-2.3-11.29 2.07-3.13 6.47-.1 2.81 4.08l.73.51c4.4.51 6.57-5.52 3.28-7.24-8.67-4.53-16.26 4.18-12.91 14.26 1.44 4.27 3.44 8.8 1.82 12.41-1.4 3.09-4.11 4.91-5.93 5C5.44 87.91 8 79.2 12.33 77c.38-.19.92-.45.41-1.08-5.39-.61-8.55 1.88-10.36 5.36-5.29 10.14 10.05 13.87 18.24 4.11zM115.34 55.67c1.24 3.06 3.13 6.09 2 8.77-.92 2.3-2.14 3.25-3.48 3.48-1.88.32-1.37-5.58 1.85-7.33.29-.16.7-.92.32-1.37-4.08-.22-6.38 1.72-7.62 4.31-3.6 7.56 8.16 9.63 13.94 2.2 2.3-3 2.39-5.9.19-11.23-1.4-3.38-3.54-5.9-2.2-8.13s4.88-.32 2.3 2.84l.57.32c3.35.19 4.72-4.27 2.17-5.39-6.73-2.89-13.01 4.35-10.04 11.53z"></path><path d="M72.73 47.6c-2.33-1.85-8.86 1.24-10.73 5.84-2.33 5.84-5.77 14.35-9.15 18.08-3.57 3.92-3.92.89-3.57-1.37.83-5.33 6-17.67 8.87-21.14-1.05-1.56-7.94-1.34-12.72 6.09-1.78 2.8-5.86 12.14-10.43 19.51-1 1.59-2.23.48-1.28-3.25 1.08-4.31 4.27-16.14 8.39-25.45 10.78-2.14 22.23-3.64 31-3.67 1.18-.32 2-1.37 0-1.44-7.56-.26-18.91.64-29.53 2 2-4.08 4.24-7.33 6.47-8.71-2.42-1.53-7.33-.92-10.14 3.22a55 55 0 00-3.67 6.51c-7.74 1.18-14.4 2.57-17.78 3.84s-3.13 5.58-1 4.78a141.67 141.67 0 0117.09-4.91C30.32 57.1 27 68.39 26.2 73c-2 11.16 4.94 11.1 8.32 6.7C38.2 74.87 45.85 57.93 47 56.15c.35-.61.83-.29.57.26-8.55 17.06-7.81 23.66-.89 22.2 3.13-.67 8.51-6 9.92-8.8.29-.67.89-.61.77-.32C52 83.54 45.08 94.92 40.46 98.5c-4.21 3.22-7.33-3.76 7.56-13.78 2.2-1.5 1.18-3.54-1.31-2.84C39 83.09 17 90.08 7.36 96.77c-.73.51-1.4.92-1.37 2 0 .61 1.08.38 1.59.06 12.5-7.49 22.74-10.43 34.47-12.88a.71.71 0 00.51 0c.54-.13.51.16.16.38-.8.45-1.59.86-1.79.92-7.91 3.09-12.69 9.92-11 13.39 1.44 3 9.18 1.91 12.85-.06 9-4.88 15.53-14.45 20-27.65 3.89-11.68 8.8-24.93 9.95-25.33zM125 74.61c-14.64-1.91-46.21.64-60.15 4.34-4.15 1.08-3 3.28-.89 2.87l1-.22c11.45-2.23 39.23-4.18 55.43-1.08 1.9.34 7.74-5.52 4.61-5.91zM76.81 72.89C80.9 70.85 87 58.22 90.94 51.3c.29-.51.8-.1.51.26-10.08 17.35-5.8 19.36-1.82 19.1C95 70.34 99.87 62.68 101 61c.45-.67.7-.13.45.35-.26.8-1.18 2.2-2 4.11-1.21 2.71.06 3.76 1.12 4.24 1.66.8 6.19.29 6.89-2.49-4.53-.1 6.31-21.46 7.43-22.77-3-1.75-7.72.16-9.85 4.37-4.56 9-8.39 16.3-10.78 16.42-4.66.26 5.36-20.12 7-20.76-1-1.44-7.33-.83-10.87 4.66-1.28 2-9.06 15.75-11 18-3.38 4-3.64.57-2.68-3.44a47.34 47.34 0 011.56-5.07c2.23-5 4.62-6.63 6.09-8.26 9.85-10.94 15.5-19.8 13.27-23.28-2-3.09-8.58-1.72-12.82 4.66-7.81 11.7-15 27.74-15.95 35.08s4.35 7.85 7.95 6.07zM81 51.43c.35-.8.57-1 1.18-2.36 3.47-7.72 7.82-15.85 10.9-19.65 1.88-2 4.53.7-.26 8a73.73 73.73 0 01-9.47 11.83c-.89 1-1.69 1.82-2 2.3-.29.39-.58.32-.35-.12z"></path></g>
	</symbol>
	<symbol id="tailwind-tech" viewBox="0 0 128 128">
		<path d="M64.004 25.602c-17.067 0-27.73 8.53-32 25.597 6.398-8.531 13.867-11.73 22.398-9.597 4.871 1.214 8.352 4.746 12.207 8.66C72.883 56.629 80.145 64 96.004 64c17.066 0 27.73-8.531 32-25.602-6.399 8.536-13.867 11.735-22.399 9.602-4.87-1.215-8.347-4.746-12.207-8.66-6.27-6.367-13.53-13.738-29.394-13.738zM32.004 64c-17.066 0-27.73 8.531-32 25.602C6.402 81.066 13.87 77.867 22.402 80c4.871 1.215 8.352 4.746 12.207 8.66 6.274 6.367 13.536 13.738 29.395 13.738 17.066 0 27.73-8.53 32-25.597-6.399 8.531-13.867 11.73-22.399 9.597-4.87-1.214-8.347-4.746-12.207-8.66C55.128 71.371 47.868 64 32.004 64zm0 0" fill="#38b2ac"></path>
	</symbol>
	<symbol id="figma-tech" viewBox="0 0 128 128">
		<path fill="#0acf83" d="M45.5 129c11.9 0 21.5-9.6 21.5-21.5V86H45.5C33.6 86 24 95.6 24 107.5S33.6 129 45.5 129zm0 0"></path><path fill="#a259ff" d="M24 64.5C24 52.6 33.6 43 45.5 43H67v43H45.5C33.6 86 24 76.4 24 64.5zm0 0"></path><path fill="#f24e1e" d="M24 21.5C24 9.6 33.6 0 45.5 0H67v43H45.5C33.6 43 24 33.4 24 21.5zm0 0"></path><path fill="#ff7262" d="M67 0h21.5C100.4 0 110 9.6 110 21.5S100.4 43 88.5 43H67zm0 0"></path><path fill="#1abcfe" d="M110 64.5c0 11.9-9.6 21.5-21.5 21.5S67 76.4 67 64.5 76.6 43 88.5 43 110 52.6 110 64.5zm0 0"></path>
	</symbol>
	<symbol id="git-tech" viewBox="0 0 128 128">
		<path fill="#F34F29" d="M124.737 58.378L69.621 3.264c-3.172-3.174-8.32-3.174-11.497 0L46.68 14.71l14.518 14.518c3.375-1.139 7.243-.375 9.932 2.314 2.703 2.706 3.461 6.607 2.294 9.993l13.992 13.993c3.385-1.167 7.292-.413 9.994 2.295 3.78 3.777 3.78 9.9 0 13.679a9.673 9.673 0 01-13.683 0 9.677 9.677 0 01-2.105-10.521L68.574 47.933l-.002 34.341a9.708 9.708 0 012.559 1.828c3.778 3.777 3.778 9.898 0 13.683-3.779 3.777-9.904 3.777-13.679 0-3.778-3.784-3.778-9.905 0-13.683a9.65 9.65 0 013.167-2.11V47.333a9.581 9.581 0 01-3.167-2.111c-2.862-2.86-3.551-7.06-2.083-10.576L41.056 20.333 3.264 58.123a8.133 8.133 0 000 11.5l55.117 55.114c3.174 3.174 8.32 3.174 11.499 0l54.858-54.858a8.135 8.135 0 00-.001-11.501z"></path>
	</symbol> 
	<symbol id="github-tech" viewBox="0 0 128 128">
		<g fill="#181616"><path fill-rule="evenodd" clip-rule="evenodd" d="M64 5.103c-33.347 0-60.388 27.035-60.388 60.388 0 26.682 17.303 49.317 41.297 57.303 3.017.56 4.125-1.31 4.125-2.905 0-1.44-.056-6.197-.082-11.243-16.8 3.653-20.345-7.125-20.345-7.125-2.747-6.98-6.705-8.836-6.705-8.836-5.48-3.748.413-3.67.413-3.67 6.063.425 9.257 6.223 9.257 6.223 5.386 9.23 14.127 6.562 17.573 5.02.542-3.903 2.107-6.568 3.834-8.076-13.413-1.525-27.514-6.704-27.514-29.843 0-6.593 2.36-11.98 6.223-16.21-.628-1.52-2.695-7.662.584-15.98 0 0 5.07-1.623 16.61 6.19C53.7 35 58.867 34.327 64 34.304c5.13.023 10.3.694 15.127 2.033 11.526-7.813 16.59-6.19 16.59-6.19 3.287 8.317 1.22 14.46.593 15.98 3.872 4.23 6.215 9.617 6.215 16.21 0 23.194-14.127 28.3-27.574 29.796 2.167 1.874 4.097 5.55 4.097 11.183 0 8.08-.07 14.583-.07 16.572 0 1.607 1.088 3.49 4.148 2.897 23.98-7.994 41.263-30.622 41.263-57.294C124.388 32.14 97.35 5.104 64 5.104z"></path><path d="M26.484 91.806c-.133.3-.605.39-1.035.185-.44-.196-.685-.605-.543-.906.13-.31.603-.395 1.04-.188.44.197.69.61.537.91zm2.446 2.729c-.287.267-.85.143-1.232-.28-.396-.42-.47-.983-.177-1.254.298-.266.844-.14 1.24.28.394.426.472.984.17 1.255zM31.312 98.012c-.37.258-.976.017-1.35-.52-.37-.538-.37-1.183.01-1.44.373-.258.97-.025 1.35.507.368.545.368 1.19-.01 1.452zm3.261 3.361c-.33.365-1.036.267-1.552-.23-.527-.487-.674-1.18-.343-1.544.336-.366 1.045-.264 1.564.23.527.486.686 1.18.333 1.543zm4.5 1.951c-.147.473-.825.688-1.51.486-.683-.207-1.13-.76-.99-1.238.14-.477.823-.7 1.512-.485.683.206 1.13.756.988 1.237zm4.943.361c.017.498-.563.91-1.28.92-.723.017-1.308-.387-1.315-.877 0-.503.568-.91 1.29-.924.717-.013 1.306.387 1.306.88zm4.598-.782c.086.485-.413.984-1.126 1.117-.7.13-1.35-.172-1.44-.653-.086-.498.422-.997 1.122-1.126.714-.123 1.354.17 1.444.663zm0 0"></path></g>
	</symbol> 
	<symbol id="github" viewBox="0 0 24 24">
		<path d="M12,2A10,10 0 0,0 2,12C2,16.42 4.87,20.17 8.84,21.5C9.34,21.58 9.5,21.27 9.5,21C9.5,20.77 9.5,20.14 9.5,19.31C6.73,19.91 6.14,17.97 6.14,17.97C5.68,16.81 5.03,16.5 5.03,16.5C4.12,15.88 5.1,15.9 5.1,15.9C6.1,15.97 6.63,16.93 6.63,16.93C7.5,18.45 8.97,18 9.54,17.76C9.63,17.11 9.89,16.67 10.17,16.42C7.95,16.17 5.62,15.31 5.62,11.5C5.62,10.39 6,9.5 6.65,8.79C6.55,8.54 6.2,7.5 6.75,6.15C6.75,6.15 7.59,5.88 9.5,7.17C10.29,6.95 11.15,6.84 12,6.84C12.85,6.84 13.71,6.95 14.5,7.17C16.41,5.88 17.25,6.15 17.25,6.15C17.8,7.5 17.45,8.54 17.35,8.79C18,9.5 18.38,10.39 18.38,11.5C18.38,15.32 16.04,16.16 13.81,16.41C14.17,16.72 14.5,17.33 14.5,18.26C14.5,19.6 14.5,20.68 14.5,21C14.5,21.27 14.66,21.59 15.17,21.5C19.14,20.16 22,16.42 22,12A10,10 0 0,0 12,2Z" />
	</symbol>
	<symbol id="subdirectory-arrow-right" viewBox="0 0 24 24">
		<path d="M19,15L13,21L11.58,19.58L15.17,16H4V4H6V14H15.17L11.58,10.42L13,9L19,15Z" />
	</symbol>
	<symbol id="information-outline" viewBox="0 0 24 24">
		<path d="M11,9H13V7H11M12,20C7.59,20 4,16.41 4,12C4,7.59 7.59,4 12,4C16.41,4 20,7.59 20,12C20,16.41 16.41,20 12,20M12,2A10,10 0 0,0 2,12A10,10 0 0,0 12,22A10,10 0 0,0 22,12A10,10 0 0,0 12,2M11,17H13V11H11V17Z" />
	</symbol>
	<symbol id="pdf" viewBox="0 0 24 24">
    <path d="M8,13H10.55V10H13.45V13H16L12,17L8,13M19.35,10.04C21.95,10.22 24,12.36 24,15A5,5 0 0,1 19,20H6A6,6 0 0,1 0,14C0,10.91 2.34,8.36 5.35,8.04C6.6,5.64 9.11,4 12,4C15.64,4 18.67,6.59 19.35,10.04M19,18A3,3 0 0,0 22,15C22,13.45 20.78,12.14 19.22,12.04L17.69,11.93L17.39,10.43C16.88,7.86 14.62,6 12,6C9.94,6 8.08,7.14 7.13,8.97L6.63,9.92L5.56,10.03C3.53,10.24 2,11.95 2,14A4,4 0 0,0 6,18H19Z" />
	</symbol>
	<symbol id="linkedin" viewBox="0 0 24 24">
    <path d="M19 3A2 2 0 0 1 21 5V19A2 2 0 0 1 19 21H5A2 2 0 0 1 3 19V5A2 2 0 0 1 5 3H19M18.5 18.5V13.2A3.26 3.26 0 0 0 15.24 9.94C14.39 9.94 13.4 10.46 12.92 11.24V10.13H10.13V18.5H12.92V13.57C12.92 12.8 13.54 12.17 14.31 12.17A1.4 1.4 0 0 1 15.71 13.57V18.5H18.5M6.88 8.56A1.68 1.68 0 0 0 8.56 6.88C8.56 5.95 7.81 5.19 6.88 5.19A1.69 1.69 0 0 0 5.19 6.88C5.19 7.81 5.95 8.56 6.88 8.56M8.27 18.5V10.13H5.5V18.5H8.27Z" />
	</symbol>
	<symbol id="menu" viewBox="0 0 24 24">
		<path d="M3,6H21V8H3V6M3,11H21V13H3V11M3,16H21V18H3V16Z" />
	</symbol>
	<symbol id="react" viewBox="0 0 128 128">
		<g fill="#61DAFB"><circle cx="64" cy="64" r="11.4"></circle><path d="M107.3 45.2c-2.2-.8-4.5-1.6-6.9-2.3.6-2.4 1.1-4.8 1.5-7.1 2.1-13.2-.2-22.5-6.6-26.1-1.9-1.1-4-1.6-6.4-1.6-7 0-15.9 5.2-24.9 13.9-9-8.7-17.9-13.9-24.9-13.9-2.4 0-4.5.5-6.4 1.6-6.4 3.7-8.7 13-6.6 26.1.4 2.3.9 4.7 1.5 7.1-2.4.7-4.7 1.4-6.9 2.3C8.2 50 1.4 56.6 1.4 64s6.9 14 19.3 18.8c2.2.8 4.5 1.6 6.9 2.3-.6 2.4-1.1 4.8-1.5 7.1-2.1 13.2.2 22.5 6.6 26.1 1.9 1.1 4 1.6 6.4 1.6 7.1 0 16-5.2 24.9-13.9 9 8.7 17.9 13.9 24.9 13.9 2.4 0 4.5-.5 6.4-1.6 6.4-3.7 8.7-13 6.6-26.1-.4-2.3-.9-4.7-1.5-7.1 2.4-.7 4.7-1.4 6.9-2.3 12.5-4.8 19.3-11.4 19.3-18.8s-6.8-14-19.3-18.8zM92.5 14.7c4.1 2.4 5.5 9.8 3.8 20.3-.3 2.1-.8 4.3-1.4 6.6-5.2-1.2-10.7-2-16.5-2.5-3.4-4.8-6.9-9.1-10.4-13 7.4-7.3 14.9-12.3 21-12.3 1.3 0 2.5.3 3.5.9zM81.3 74c-1.8 3.2-3.9 6.4-6.1 9.6-3.7.3-7.4.4-11.2.4-3.9 0-7.6-.1-11.2-.4-2.2-3.2-4.2-6.4-6-9.6-1.9-3.3-3.7-6.7-5.3-10 1.6-3.3 3.4-6.7 5.3-10 1.8-3.2 3.9-6.4 6.1-9.6 3.7-.3 7.4-.4 11.2-.4 3.9 0 7.6.1 11.2.4 2.2 3.2 4.2 6.4 6 9.6 1.9 3.3 3.7 6.7 5.3 10-1.7 3.3-3.4 6.6-5.3 10zm8.3-3.3c1.5 3.5 2.7 6.9 3.8 10.3-3.4.8-7 1.4-10.8 1.9 1.2-1.9 2.5-3.9 3.6-6 1.2-2.1 2.3-4.2 3.4-6.2zM64 97.8c-2.4-2.6-4.7-5.4-6.9-8.3 2.3.1 4.6.2 6.9.2 2.3 0 4.6-.1 6.9-.2-2.2 2.9-4.5 5.7-6.9 8.3zm-18.6-15c-3.8-.5-7.4-1.1-10.8-1.9 1.1-3.3 2.3-6.8 3.8-10.3 1.1 2 2.2 4.1 3.4 6.1 1.2 2.2 2.4 4.1 3.6 6.1zm-7-25.5c-1.5-3.5-2.7-6.9-3.8-10.3 3.4-.8 7-1.4 10.8-1.9-1.2 1.9-2.5 3.9-3.6 6-1.2 2.1-2.3 4.2-3.4 6.2zM64 30.2c2.4 2.6 4.7 5.4 6.9 8.3-2.3-.1-4.6-.2-6.9-.2-2.3 0-4.6.1-6.9.2 2.2-2.9 4.5-5.7 6.9-8.3zm22.2 21l-3.6-6c3.8.5 7.4 1.1 10.8 1.9-1.1 3.3-2.3 6.8-3.8 10.3-1.1-2.1-2.2-4.2-3.4-6.2zM31.7 35c-1.7-10.5-.3-17.9 3.8-20.3 1-.6 2.2-.9 3.5-.9 6 0 13.5 4.9 21 12.3-3.5 3.8-7 8.2-10.4 13-5.8.5-11.3 1.4-16.5 2.5-.6-2.3-1-4.5-1.4-6.6zM7 64c0-4.7 5.7-9.7 15.7-13.4 2-.8 4.2-1.5 6.4-2.1 1.6 5 3.6 10.3 6 15.6-2.4 5.3-4.5 10.5-6 15.5C15.3 75.6 7 69.6 7 64zm28.5 49.3c-4.1-2.4-5.5-9.8-3.8-20.3.3-2.1.8-4.3 1.4-6.6 5.2 1.2 10.7 2 16.5 2.5 3.4 4.8 6.9 9.1 10.4 13-7.4 7.3-14.9 12.3-21 12.3-1.3 0-2.5-.3-3.5-.9zM96.3 93c1.7 10.5.3 17.9-3.8 20.3-1 .6-2.2.9-3.5.9-6 0-13.5-4.9-21-12.3 3.5-3.8 7-8.2 10.4-13 5.8-.5 11.3-1.4 16.5-2.5.6 2.3 1 4.5 1.4 6.6zm9-15.6c-2 .8-4.2 1.5-6.4 2.1-1.6-5-3.6-10.3-6-15.6 2.4-5.3 4.5-10.5 6-15.5 13.8 4 22.1 10 22.1 15.6 0 4.7-5.8 9.7-15.7 13.4z"></path></g>
	</symbol>
	<symbol id="sass" viewBox="0 0 128 128">
		<path fill-rule="evenodd" clip-rule="evenodd" fill="#CB6699" d="M1.219 56.156c0 .703.207 1.167.323 1.618.756 2.933 2.381 5.45 4.309 7.746 2.746 3.272 6.109 5.906 9.554 8.383 2.988 2.148 6.037 4.248 9.037 6.38.515.366 1.002.787 1.561 1.236-.481.26-.881.489-1.297.7-3.959 2.008-7.768 4.259-11.279 6.986-2.116 1.644-4.162 3.391-5.607 5.674-2.325 3.672-3.148 7.584-1.415 11.761.506 1.22 1.278 2.274 2.367 3.053.353.252.749.502 1.162.6 1.058.249 2.136.412 3.207.609l3.033-.002c3.354-.299 6.407-1.448 9.166-3.352 4.312-2.976 7.217-6.966 8.466-12.087.908-3.722.945-7.448-.125-11.153a11.696 11.696 0 00-.354-1.014c-.13-.333-.283-.657-.463-1.072l6.876-3.954.103.088c-.125.409-.258.817-.371 1.23-.817 2.984-1.36 6.02-1.165 9.117.208 3.3 1.129 6.389 3.061 9.146 1.562 2.23 5.284 2.313 6.944.075.589-.795 1.16-1.626 1.589-2.513 1.121-2.315 2.159-4.671 3.23-7.011l.187-.428c-.077 1.108-.167 2.081-.208 3.055-.064 1.521.025 3.033.545 4.48.445 1.238 1.202 2.163 2.62 2.326.97.111 1.743-.333 2.456-.896a10.384 10.384 0 002.691-3.199c1.901-3.491 3.853-6.961 5.576-10.54 1.864-3.871 3.494-7.855 5.225-11.792l.286-.698c.409 1.607.694 3.181 1.219 4.671.61 1.729 1.365 3.417 2.187 5.058.389.775.344 1.278-.195 1.928-2.256 2.72-4.473 5.473-6.692 8.223-.491.607-.98 1.225-1.389 1.888a3.701 3.701 0 00-.48 1.364 1.737 1.737 0 001.383 1.971 9.661 9.661 0 002.708.193c3.097-.228 5.909-1.315 8.395-3.157 3.221-2.386 4.255-5.642 3.475-9.501-.211-1.047-.584-2.065-.947-3.074-.163-.455-.174-.774.123-1.198 2.575-3.677 4.775-7.578 6.821-11.569.081-.157.164-.314.306-.482.663 3.45 1.661 6.775 3.449 9.792-.912.879-1.815 1.676-2.632 2.554-1.799 1.934-3.359 4.034-4.173 6.595-.35 1.104-.619 2.226-.463 3.405.242 1.831 1.742 3.021 3.543 2.604 3.854-.892 7.181-2.708 9.612-5.925 1.636-2.166 1.785-4.582 1.1-7.113-.188-.688-.411-1.365-.651-2.154.951-.295 1.878-.649 2.837-.868 4.979-1.136 9.904-.938 14.702.86 2.801 1.05 5.064 2.807 6.406 5.571 1.639 3.379.733 6.585-2.452 8.721-.297.199-.637.356-.883.605a.869.869 0 00-.205.67c.021.123.346.277.533.275 1.047-.008 1.896-.557 2.711-1.121 2.042-1.413 3.532-3.314 3.853-5.817l.063-.188-.077-1.63c-.031-.094.023-.187.016-.258-.434-3.645-2.381-6.472-5.213-8.688-3.28-2.565-7.153-3.621-11.249-3.788a25.401 25.401 0 00-9.765 1.503c-.897.325-1.786.71-2.688 1.073-.121-.219-.251-.429-.358-.646-.926-1.896-2.048-3.708-2.296-5.882-.176-1.544-.392-3.086-.025-4.613.353-1.469.813-2.913 1.246-4.362.223-.746.066-1.164-.646-1.5a2.854 2.854 0 00-.786-.258c-1.75-.254-3.476-.109-5.171.384-.6.175-1.036.511-1.169 1.175-.076.381-.231.746-.339 1.122-.443 1.563-.757 3.156-1.473 4.645-1.794 3.735-3.842 7.329-5.938 10.897-.227.385-.466.763-.752 1.23-.736-1.54-1.521-2.922-1.759-4.542-.269-1.832-.481-3.661-.025-5.479.339-1.356.782-2.687 1.19-4.025.193-.636.104-.97-.472-1.305-.291-.169-.62-.319-.948-.368a11.643 11.643 0 00-5.354.438c-.543.176-.828.527-.994 1.087-.488 1.652-.904 3.344-1.589 4.915-2.774 6.36-5.628 12.687-8.479 19.013-.595 1.321-1.292 2.596-1.963 3.882-.17.326-.418.613-.63.919-.17-.201-.236-.339-.235-.477.005-.813-.092-1.65.063-2.436a172.189 172.189 0 011.578-7.099c.47-1.946 1.017-3.874 1.538-5.807.175-.647.178-1.252-.287-1.796-.781-.911-2.413-1.111-3.381-.409l-.428.242.083-.69c.204-1.479.245-2.953-.161-4.41-.506-1.816-1.802-2.861-3.686-2.803-.878.027-1.8.177-2.613.497-3.419 1.34-6.048 3.713-8.286 6.568a2.592 2.592 0 01-.757.654c-2.893 1.604-5.795 3.188-8.696 4.778l-3.229 1.769c-.866-.826-1.653-1.683-2.546-2.41-2.727-2.224-5.498-4.393-8.244-6.592-2.434-1.949-4.792-3.979-6.596-6.56-1.342-1.92-2.207-4.021-2.29-6.395-.105-3.025.753-5.789 2.293-8.362 1.97-3.292 4.657-5.934 7.611-8.327 3.125-2.53 6.505-4.678 10.008-6.639 4.901-2.743 9.942-5.171 15.347-6.774 5.542-1.644 11.165-2.585 16.965-1.929 2.28.258 4.494.78 6.527 1.895 1.557.853 2.834 1.97 3.428 3.716.586 1.718.568 3.459.162 5.204-.825 3.534-2.76 6.447-5.195 9.05-3.994 4.267-8.866 7.172-14.351 9.091a39.478 39.478 0 01-9.765 2.083c-2.729.229-5.401-.013-7.985-.962-1.711-.629-3.201-1.591-4.399-2.987-.214-.25-.488-.521-.887-.287-.391.23-.46.602-.329.979.219.626.421 1.278.762 1.838.857 1.405 2.107 2.424 3.483 3.298 2.643 1.681 5.597 2.246 8.66 2.377 4.648.201 9.183-.493 13.654-1.74 6.383-1.78 11.933-4.924 16.384-9.884 3.706-4.13 6.353-8.791 6.92-14.419.277-2.747-.018-5.438-1.304-7.944-1.395-2.715-3.613-4.734-6.265-6.125C68.756 18.179 64.588 17 60.286 17h-4.31c-5.21 0-10.247 1.493-15.143 3.274-3.706 1.349-7.34 2.941-10.868 4.703-7.683 3.839-14.838 8.468-20.715 14.833-2.928 3.171-5.407 6.67-6.833 10.79a40.494 40.494 0 00-1.111 3.746m27.839 36.013c-.333 4.459-2.354 8.074-5.657 11.002-1.858 1.646-3.989 2.818-6.471 3.23-.9.149-1.821.185-2.694-.188-1.245-.532-1.524-1.637-1.548-2.814-.037-1.876.62-3.572 1.521-5.186 1.176-2.104 2.9-3.708 4.741-5.206 2.9-2.361 6.046-4.359 9.268-6.245l.243-.1c.498 1.84.735 3.657.597 5.507zM54.303 70.98c-.235 1.424-.529 2.849-.945 4.229-1.438 4.777-3.285 9.406-5.282 13.973-.369.845-.906 1.616-1.373 2.417a1.689 1.689 0 01-.283.334c-.578.571-1.126.541-1.418-.206-.34-.868-.549-1.797-.729-2.716-.121-.617-.092-1.265-.13-1.897.039-4.494 1.41-8.578 3.736-12.38.959-1.568 2.003-3.062 3.598-4.054a6.27 6.27 0 011.595-.706c.85-.239 1.372.154 1.231 1.006zm17.164 21.868l6.169-7.203c.257 2.675-4.29 8.015-6.169 7.203zm19.703-4.847c-.436.25-.911.43-1.358.661-.409.212-.544-.002-.556-.354a2.385 2.385 0 01.093-.721c.833-2.938 2.366-5.446 4.647-7.486l.16-.082c1.085 3.035-.169 6.368-2.986 7.982z"></path>
	</symbol>
	<symbol id="svelte" viewBox="0 0 128 128">
		<path d="M 110.43093,16.935847 C 98.552474,-0.076153 75.089104,-5.118154 58.130818,5.695846 l -29.793,19.000001 c -4.030441,2.529 -7.488786,5.871 -10.15468,9.814 -2.665895,3.943 -4.479469,8.399 -5.325138,13.083 a 25.478172,30.64 0 0 0 -0.572094,6.396 c 0.0183,5.831 1.446866,11.571 4.163485,16.729995 -2.546986,3.87201 -4.285721,8.22 -5.110602,12.78201 a 25.347621,30.483 0 0 0 0.345086,14.41199 c 1.072679,4.732998 3.078336,9.203998 5.900559,13.151998 11.877618,17.011 35.393374,22.053 52.299272,11.24 l 29.762238,-19.001 c 4.027946,-2.532 7.482126,-5.877998 10.141386,-9.824998 2.65841,-3.947 4.46282,-8.40699 5.29686,-13.093 0.3825,-2.107 0.57458,-4.244 0.5721,-6.386 -0.007,-5.81999 -1.41778,-11.550995 -4.11194,-16.708995 2.54616,-3.869 4.28489,-8.213 5.11143,-12.771 0.36921,-2.109 0.55713,-4.245 0.56212,-6.386 0.002,-7.595 -2.37152,-15 -6.78697,-21.178 z" fill="#ff3e00" id="path598" style="stroke-width:0.911885"></path><path d="m 55.218941,112.66204 a 28.463375,34.23 0 0 1 -5.953776,0.76 c -3.820895,0.001 -7.585244,-0.925 -10.970416,-2.7 -3.384341,-1.774 -6.288887,-4.343 -8.464177,-7.487 -2.655917,-3.716 -4.082827,-8.171 -4.080332,-12.74 a 15.657767,18.83 0 0 1 0.332613,-3.833 15.424937,18.55 0 0 1 0.719276,-2.782 l 0.562116,-1.708 1.51921,1.156 c 3.528195,2.591 7.470493,4.564 11.658097,5.834 l 1.104275,0.333 -0.103941,1.104 v 0.573 c -0.0025,1.381 0.427408,2.73 1.228174,3.854 0.646933,0.958 1.51838,1.744 2.537839,2.288 a 8.2621121,9.936 0 0 0 3.311997,0.837 8.2513022,9.923 0 0 0 1.79029,-0.229 7.2717563,8.745 0 0 0 1.832699,-0.802 l 29.760566,-19.094 c 0.892236,-0.566 1.627311,-1.349 2.135377,-2.276 0.507236,-0.927 0.771662,-1.968 0.768337,-3.026 -0.0084,-1.381 -0.449027,-2.725 -1.259773,-3.844 -0.656912,-0.946 -1.533347,-1.718 -2.553637,-2.252 a 8.3128357,9.997 0 0 0 -3.307008,-0.81 8.246313,9.917 0 0 0 -1.79029,0.23 6.9383115,8.344 0 0 0 -1.821058,0.801 l -11.346268,7.25 a 24.375558,29.314 0 0 1 -6.04774,2.656 c -1.945787,0.502 -3.945624,0.758 -5.954608,0.76 -3.820063,0 -7.582749,-0.926 -10.967089,-2.698 -3.384341,-1.772 -6.289718,-4.338 -8.467502,-7.478 -2.652591,-3.718 -4.079502,-8.172 -4.080334,-12.74 0.0016,-1.285 0.113089,-2.567 0.332615,-3.833 0.509728,-2.816 1.597374,-5.495 3.196411,-7.867 1.598207,-2.373 3.67205,-4.387 6.089317,-5.914 l 29.792168,-18.99 c 1.869286,-1.19 3.908205,-2.09 6.04774,-2.667 1.945787,-0.499 3.945625,-0.75 5.953776,-0.75 3.82921,-0.01 7.603538,0.91 10.999519,2.681 3.395981,1.77 6.311338,4.34 8.497439,7.486 2.636787,3.727 4.045417,8.184 4.028777,12.75 a 15.748404,18.939 0 0 1 -0.33344,3.844 15.407475,18.529 0 0 1 -0.71845,2.781 l -0.56211,1.708 -1.519216,-1.114 c -3.525699,-2.595 -7.468833,-4.568 -11.658096,-5.834 l -1.104275,-0.343 0.103941,-1.105 v -0.572 c 0,-1.385 -0.429072,-2.735 -1.228174,-3.865 -0.65608,-0.945 -1.530022,-1.716 -2.549481,-2.25 a 8.3086779,9.992 0 0 0 -3.301186,-0.813 8.2213671,9.887 0 0 0 -1.768671,0.271 6.8185708,8.2 0 0 0 -1.831867,0.802 l -29.792165,18.99 a 5.8797701,7.071 0 0 0 -1.836857,1.79 4.7505482,5.713 0 0 0 -0.962914,2.377 5.0365955,6.057 0 0 0 -0.135541,1.104 c -8.31e-4,1.378 0.42824,2.722 1.228174,3.844 0.655248,0.945 1.530021,1.717 2.548649,2.25 a 8.2986996,9.98 0 0 0 3.301186,0.812 8.2471446,9.918 0 0 0 1.79029,-0.23 6.9433007,8.35 0 0 0 1.832699,-0.801 l 11.367057,-7.292 a 24.218399,29.125 0 0 1 6.04774,-2.656 28.52574,34.305 0 0 1 5.953776,-0.76 c 3.821727,0 7.586076,0.925 10.972078,2.697 3.386003,1.772 6.293877,4.339 8.473325,7.48 2.652591,3.717 4.079498,8.171 4.080338,12.74 0.003,1.299 -0.11226,2.596 -0.34343,3.874 -0.506403,2.817 -1.594046,5.497 -3.192254,7.87 -1.599037,2.372 -3.673715,4.385 -6.093476,5.911 l -29.739779,18.99 a 24.308205,29.233 0 0 1 -6.057719,2.667 z" fill="#ffffff" id="path600" style="stroke-width:0.911885"></path>
	</symbol>
</svg>